<svg xmlns="http://www.w3.org/2000/svg" version="1.1" xmlns:xlink="http://www.w3.org/1999/xlink" xmlns:svgjs="http://svgjs.dev/svgjs" viewBox="0 0 800 800"><defs><linearGradient x1="50%" y1="0%" x2="50%" y2="100%" id="ffflurry-grad" gradientTransform="rotate(270)"><stop stop-color="hsl(0, 0%, 0%)" stop-opacity="1" offset="0%"></stop><stop stop-color="#BEF264" stop-opacity="1" offset="45%"></stop><stop stop-color="hsl(0, 3%, 99%)" stop-opacity="1" offset="100%"></stop></linearGradient></defs><rect width="100%" height="100%" fill="hsl(0, 0%, 0%)"></rect><g fill="url(#ffflurry-grad)"><rect width="107" height="2" x="-16.5" y="670" rx="1" transform="rotate(48, 37, 671)" opacity="0.11"></rect><rect width="48" height="2" x="503" y="522" rx="1" transform="rotate(48, 527, 523)" opacity="0.82"></rect><rect width="42" height="2" x="411" y="447" rx="1" transform="rotate(48, 432, 448)" opacity="0.81"></rect><rect width="306" height="2" x="611" y="49" rx="1" transform="rotate(48, 764, 50)" opacity="0.52"></rect><rect width="200" height="2" x="486" y="749" rx="1" transform="rotate(48, 586, 750)" opacity="0.66"></rect><rect width="192" height="2" x="373" y="583" rx="1" transform="rotate(48, 469, 584)" opacity="0.10"></rect><rect width="91" height="2" x="390.5" y="39" rx="1" transform="rotate(48, 436, 40)" opacity="0.72"></rect><rect width="128" height="2" x="-15" y="472" rx="1" transform="rotate(48, 49, 473)" opacity="0.88"></rect><rect width="83" height="2" x="452.5" y="463" rx="1" transform="rotate(48, 494, 464)" opacity="0.18"></rect><rect width="163" height="2" x="417.5" y="686" rx="1" transform="rotate(48, 499, 687)" opacity="0.55"></rect><rect width="138" height="2" x="206" y="764" rx="1" transform="rotate(48, 275, 765)" opacity="0.55"></rect><rect width="76" height="2" x="175" y="646" rx="1" transform="rotate(48, 213, 647)" opacity="0.90"></rect><rect width="343" height="2" x="566.5" y="635" rx="1" transform="rotate(48, 738, 636)" opacity="0.59"></rect><rect width="293" height="2" x="64.5" y="486" rx="1" transform="rotate(48, 211, 487)" opacity="0.22"></rect><rect width="388" height="2" x="-144" y="355" rx="1" transform="rotate(48, 50, 356)" opacity="0.26"></rect><rect width="188" height="2" x="15" y="161" rx="1" transform="rotate(48, 109, 162)" opacity="0.43"></rect><rect width="258" height="2" x="23" y="704" rx="1" transform="rotate(48, 152, 705)" opacity="0.29"></rect><rect width="181" height="2" x="534.5" y="429" rx="1" transform="rotate(48, 625, 430)" opacity="0.24"></rect><rect width="148" height="2" x="637" y="422" rx="1" transform="rotate(48, 711, 423)" opacity="0.63"></rect><rect width="123" height="2" x="27.5" y="629" rx="1" transform="rotate(48, 89, 630)" opacity="0.50"></rect><rect width="410" height="2" x="195" y="750" rx="1" transform="rotate(48, 400, 751)" opacity="0.83"></rect><rect width="151" height="2" x="214.5" y="539" rx="1" transform="rotate(48, 290, 540)" opacity="0.10"></rect><rect width="241" height="2" x="3.5" y="764" rx="1" transform="rotate(48, 124, 765)" opacity="0.34"></rect><rect width="206" height="2" x="637" y="303" rx="1" transform="rotate(48, 740, 304)" opacity="0.14"></rect><rect width="265" height="2" x="528.5" y="329" rx="1" transform="rotate(48, 661, 330)" opacity="0.55"></rect><rect width="62" height="2" x="426" y="312" rx="1" transform="rotate(48, 457, 313)" opacity="0.15"></rect><rect width="90" height="2" x="535" y="507" rx="1" transform="rotate(48, 580, 508)" opacity="0.36"></rect><rect width="120" height="2" x="213" y="693" rx="1" transform="rotate(48, 273, 694)" opacity="0.95"></rect><rect width="231" height="2" x="194.5" y="374" rx="1" transform="rotate(48, 310, 375)" opacity="0.41"></rect><rect width="344" height="2" x="167" y="113" rx="1" transform="rotate(48, 339, 114)" opacity="0.59"></rect><rect width="99" height="2" x="-11.5" y="35" rx="1" transform="rotate(48, 38, 36)" opacity="0.15"></rect><rect width="168" height="2" x="277" y="543" rx="1" transform="rotate(48, 361, 544)" opacity="0.63"></rect><rect width="324" height="2" x="494" y="161" rx="1" transform="rotate(48, 656, 162)" opacity="0.32"></rect><rect width="360" height="2" x="371" y="39" rx="1" transform="rotate(48, 551, 40)" opacity="0.88"></rect><rect width="125" height="2" x="401.5" y="507" rx="1" transform="rotate(48, 464, 508)" opacity="1.00"></rect><rect width="150" height="2" x="574" y="540" rx="1" transform="rotate(48, 649, 541)" opacity="0.41"></rect><rect width="476" height="2" x="387" y="651" rx="1" transform="rotate(48, 625, 652)" opacity="0.37"></rect><rect width="141" height="2" x="86.5" y="610" rx="1" transform="rotate(48, 157, 611)" opacity="0.44"></rect><rect width="306" height="2" x="378" y="417" rx="1" transform="rotate(48, 531, 418)" opacity="0.12"></rect><rect width="290" height="2" x="356" y="765" rx="1" transform="rotate(48, 501, 766)" opacity="0.51"></rect><rect width="224" height="2" x="431" y="609" rx="1" transform="rotate(48, 543, 610)" opacity="0.53"></rect><rect width="50" height="2" x="102" y="549" rx="1" transform="rotate(48, 127, 550)" opacity="0.26"></rect><rect width="67" height="2" x="535.5" y="355" rx="1" transform="rotate(48, 569, 356)" opacity="0.40"></rect><rect width="130" height="2" x="207" y="475" rx="1" transform="rotate(48, 272, 476)" opacity="0.50"></rect><rect width="40" height="2" x="444" y="382" rx="1" transform="rotate(48, 464, 383)" opacity="0.92"></rect><rect width="262" height="2" x="62" y="35" rx="1" transform="rotate(48, 193, 36)" opacity="0.22"></rect><rect width="35" height="2" x="754.5" y="381" rx="1" transform="rotate(48, 772, 382)" opacity="0.83"></rect><rect width="395" height="2" x="58.5" y="208" rx="1" transform="rotate(48, 256, 209)" opacity="0.49"></rect><rect width="185" height="2" x="498.5" y="290" rx="1" transform="rotate(48, 591, 291)" opacity="0.46"></rect><rect width="151" height="2" x="-48.5" y="134" rx="1" transform="rotate(48, 27, 135)" opacity="0.89"></rect><rect width="214" height="2" x="-28" y="97" rx="1" transform="rotate(48, 79, 98)" opacity="0.82"></rect><rect width="88" height="2" x="370" y="538" rx="1" transform="rotate(48, 414, 539)" opacity="0.58"></rect><rect width="101" height="2" x="609.5" y="239" rx="1" transform="rotate(48, 660, 240)" opacity="0.19"></rect><rect width="310" height="2" x="235" y="363" rx="1" transform="rotate(48, 390, 364)" opacity="0.60"></rect><rect width="315" height="2" x="338.5" y="184" rx="1" transform="rotate(48, 496, 185)" opacity="0.24"></rect><rect width="321" height="2" x="510.5" y="743" rx="1" transform="rotate(48, 671, 744)" opacity="0.57"></rect><rect width="80" height="2" x="712" y="226" rx="1" transform="rotate(48, 752, 227)" opacity="0.40"></rect><rect width="113" height="2" x="628.5" y="43" rx="1" transform="rotate(48, 685, 44)" opacity="0.33"></rect><rect width="59" height="2" x="113.5" y="280" rx="1" transform="rotate(48, 143, 281)" opacity="0.87"></rect><rect width="296" height="2" x="76" y="566" rx="1" transform="rotate(48, 224, 567)" opacity="0.15"></rect><rect width="59" height="2" x="219.5" y="407" rx="1" transform="rotate(48, 249, 408)" opacity="0.74"></rect><rect width="82" height="2" x="707" y="524" rx="1" transform="rotate(48, 748, 525)" opacity="0.09"></rect><rect width="58" height="2" x="127" y="385" rx="1" transform="rotate(48, 156, 386)" opacity="0.77"></rect><rect width="204" height="2" x="-51" y="234" rx="1" transform="rotate(48, 51, 235)" opacity="0.41"></rect><rect width="181" height="2" x="534.5" y="84" rx="1" transform="rotate(48, 625, 85)" opacity="0.23"></rect><rect width="380" height="2" x="250" y="126" rx="1" transform="rotate(48, 440, 127)" opacity="0.48"></rect><rect width="70" height="2" x="714" y="140" rx="1" transform="rotate(48, 749, 141)" opacity="0.71"></rect><rect width="33" height="2" x="309.5" y="472" rx="1" transform="rotate(48, 326, 473)" opacity="1.00"></rect><rect width="205" height="2" x="70.5" y="157" rx="1" transform="rotate(48, 173, 158)" opacity="0.70"></rect><rect width="247" height="2" x="454.5" y="218" rx="1" transform="rotate(48, 578, 219)" opacity="0.66"></rect><rect width="347" height="2" x="59.5" y="311" rx="1" transform="rotate(48, 233, 312)" opacity="0.69"></rect><rect width="430" height="2" x="181" y="654" rx="1" transform="rotate(48, 396, 655)" opacity="0.27"></rect><rect width="88" height="2" x="342" y="221" rx="1" transform="rotate(48, 386, 222)" opacity="0.73"></rect><rect width="109" height="2" x="276.5" y="293" rx="1" transform="rotate(48, 331, 294)" opacity="0.83"></rect><rect width="128" height="2" x="178" y="100" rx="1" transform="rotate(48, 242, 101)" opacity="0.31"></rect><rect width="156" height="2" x="-43" y="755" rx="1" transform="rotate(48, 35, 756)" opacity="0.75"></rect><rect width="249" height="2" x="190.5" y="614" rx="1" transform="rotate(48, 315, 615)" opacity="0.50"></rect><rect width="114" height="2" x="705" y="723" rx="1" transform="rotate(48, 762, 724)" opacity="0.90"></rect><rect width="195" height="2" x="42.5" y="467" rx="1" transform="rotate(48, 140, 468)" opacity="0.80"></rect><rect width="149" height="2" x="669.5" y="779" rx="1" transform="rotate(48, 744, 780)" opacity="0.88"></rect><rect width="141" height="2" x="237.5" y="29" rx="1" transform="rotate(48, 308, 30)" opacity="0.35"></rect><rect width="73" height="2" x="1.5" y="568" rx="1" transform="rotate(48, 38, 569)" opacity="0.15"></rect><rect width="191" height="2" x="24.5" y="45" rx="1" transform="rotate(48, 120, 46)" opacity="0.54"></rect><rect width="68" height="2" x="523" y="130" rx="1" transform="rotate(48, 557, 131)" opacity="0.37"></rect><rect width="276" height="2" x="231" y="440" rx="1" transform="rotate(48, 369, 441)" opacity="0.17"></rect><rect width="129" height="2" x="441.5" y="264" rx="1" transform="rotate(48, 506, 265)" opacity="0.32"></rect></g></svg>